<svg width="12" height="17" viewBox="0 0 12 17" fill="none" xmlns="http://www.w3.org/2000/svg">
<path d="M6.00009 0C6.33638 0 6.6143 0.290704 6.65828 0.667873L6.66434 0.772727L6.66381 14.3562L10.865 9.44892C11.1239 9.1465 11.5445 9.14545 11.8044 9.44657C12.0408 9.72031 12.063 10.1495 11.8706 10.4525L11.8065 10.5394L6.47115 16.7727C6.43703 16.8126 6.40011 16.8472 6.36111 16.8766C6.34937 16.8849 6.33736 16.8933 6.32511 16.9013C6.31461 16.9087 6.30371 16.9154 6.29269 16.9216C6.27665 16.9304 6.26008 16.9389 6.24317 16.9466C6.23013 16.9529 6.21745 16.9582 6.20467 16.9629C6.18882 16.9686 6.17194 16.9742 6.15479 16.9789C6.14282 16.9825 6.1313 16.9853 6.11973 16.9877C6.10252 16.9912 6.08471 16.9941 6.06669 16.9962C6.05295 16.998 6.03933 16.9991 6.0257 16.9996C6.01743 16.9998 6.00878 17 6.00009 17L5.97436 16.9996C5.96132 16.999 5.94829 16.998 5.9353 16.9965L6.00009 17C5.95817 17 5.91716 16.9955 5.8774 16.9868C5.8679 16.9848 5.85815 16.9825 5.84844 16.9798C5.82844 16.9743 5.80919 16.968 5.79031 16.9607C5.78093 16.9571 5.77091 16.9529 5.76096 16.9485C5.74098 16.9394 5.72192 16.9296 5.70336 16.9188C5.69464 16.9138 5.6855 16.9082 5.67646 16.9023C5.6617 16.8926 5.64768 16.8827 5.63402 16.8722C5.62434 16.8647 5.61428 16.8565 5.60437 16.8479L5.59671 16.8413C5.57333 16.8204 5.55117 16.7979 5.53039 16.7737L5.52977 16.7727L0.193585 10.5394C-0.0652858 10.237 -0.064415 9.74776 0.195529 9.44661C0.431843 9.17285 0.800915 9.1488 1.06056 9.37388L1.13493 9.44888L5.3353 14.3542L5.33583 0.772727C5.33583 0.345962 5.63323 0 6.00009 0Z" fill="#959595"/>
</svg>
