<svg width="31" height="32" viewBox="0 0 31 32" fill="none" xmlns="http://www.w3.org/2000/svg">
<path d="M7.31467 8.58523H13.1616V9.35561H7.85063V15.1532H12.8449V15.9235H7.85063V22.2887H13.2225V23.059H7.31467V8.58523ZM13.6854 8.58523H14.3066L17.0595 14.9505L19.8733 8.58513L23.7005 0.5L17.4127 15.6195L20.6529 23.059H20.0073L17.0595 16.2884L14.0995 23.059H13.4661L16.7306 15.6194L13.6854 8.58523H13.6854ZM20.8843 9.35561V8.58513H27.5474V9.35551H24.4777V23.0589H23.9417V9.35561H20.8843V9.35561ZM0 8.58513H0.669951L9.90819 31.5L6.09053 23.0589L0.560301 9.67988L0.535961 23.0591H0V8.58513ZM27.4934 22.0561C27.3838 22.0561 27.3017 21.9156 27.3017 21.7337C27.3017 21.5521 27.3838 21.4113 27.4934 21.4113C27.6042 21.4113 27.685 21.552 27.685 21.7337C27.685 21.9155 27.6042 22.0561 27.4934 22.0561ZM28.02 21.208H28.3068C28.3107 21.4654 28.4241 21.6386 28.591 21.6386C28.7774 21.6386 28.883 21.4525 28.883 21.1041V18.8972H29.175V21.1063C29.175 21.7337 28.956 22.0951 28.5936 22.0951C28.2533 22.0951 28.02 21.7445 28.02 21.2079V21.208ZM29.5569 21.1799H29.8463C29.8711 21.4763 30.0458 21.6645 30.2974 21.6645C30.532 21.6645 30.7041 21.4632 30.7041 21.1863C30.7041 20.9484 30.5946 20.8056 30.3456 20.7082L30.1031 20.6109C29.7628 20.4788 29.6078 20.2062 29.6078 19.7476C29.6078 19.1916 29.8815 18.8215 30.2921 18.8215C30.6741 18.8215 30.9531 19.1914 30.97 19.7172H30.6858C30.6585 19.4295 30.5072 19.2499 30.2882 19.2499C30.0575 19.2499 29.9037 19.4338 29.9037 19.715C29.9037 19.9378 30.0027 20.0656 30.2478 20.1607L30.4551 20.2451C30.8409 20.3945 31 20.6541 31 21.1236C31 21.7208 30.7211 22.0951 30.2753 22.0951C29.8581 22.0951 29.5778 21.738 29.5569 21.1798V21.1799Z" fill="white"/>
</svg>
