<svg width="16" height="16" viewBox="0 0 16 16" fill="none" xmlns="http://www.w3.org/2000/svg">
<path d="M8.11656 9.554C7.78939 9.68041 7.43093 9.84514 6.71334 10.1763C6.44126 10.305 6.15695 10.4337 5.89235 10.555C5.87399 10.5395 5.85494 10.5201 5.83658 10.5041C4.41703 9.22853 1.79151 8.32765 1.90306 6.61454C1.94455 5.9905 2.19962 4.35232 6.94528 2.36295C10.8509 0.744215 13.9587 1.19265 14.4954 2.18734C15.2667 3.60531 12.8296 6.24389 8.79607 6.62655C8.34966 6.7027 7.8886 6.6935 7.44698 6.59965C7.00537 6.50579 6.59448 6.32967 6.24469 6.08431C6.03111 5.88926 5.99914 5.87782 5.92024 5.91672C5.79032 5.97391 5.87399 6.15066 5.92024 6.2519C6.0741 6.48616 6.28225 6.6921 6.53238 6.85754C6.78251 7.02298 7.06955 7.14458 7.37652 7.21513C8.96381 7.50364 10.6188 7.36579 12.1079 6.82103C14.5525 6.02539 16.4611 3.81351 15.902 1.95912C15.3408 0.0789913 11.6297 -0.541045 8.1186 0.507983C5.91975 1.13111 3.8882 2.11202 2.13976 3.39481C0.205312 4.91631 -0.100771 6.23875 0.0243828 6.79243C0.474666 8.75836 3.69739 10.0379 4.98974 10.9857C4.92173 11.0171 4.86459 11.0429 4.81358 11.0675C4.16876 11.3369 1.71057 12.4174 1.09772 13.5602C0.401886 14.8552 1.20927 15.7835 1.74253 15.9082C2.54617 16.0701 3.38985 16.0169 4.15578 15.756C4.9217 15.4951 5.57163 15.0396 6.01479 14.4531C6.39112 13.9667 6.6222 13.4111 6.6884 12.8335C6.7546 12.2559 6.65395 11.6734 6.39501 11.1355C6.54778 11.0331 6.71072 10.9418 6.88202 10.8627C7.21123 10.6991 7.5248 10.5378 7.803 10.4131C8.75552 10.0379 9.795 9.84474 10.8468 9.84743C13.0547 10.0659 13.4907 11.2242 13.4071 11.7121C13.3679 11.8852 13.2851 12.0493 13.1643 12.1932C13.0434 12.3372 12.8873 12.4577 12.7065 12.5466C12.5534 12.6284 12.5024 12.6559 12.516 12.7142C12.5344 12.8 12.6085 12.796 12.7384 12.7806C13.0702 12.6924 13.3624 12.5219 13.5768 12.2915C13.7912 12.0611 13.9177 11.7816 13.9396 11.4896C14.0077 10.3456 12.7105 9.09069 10.4142 9.10213C9.72665 9.10312 9.04593 9.21718 8.4104 9.43788C8.30838 9.47335 8.2093 9.51148 8.11316 9.55228L8.11656 9.554ZM4.83466 14.0378C4.10142 14.7088 3.08114 14.9622 2.64038 14.7477C2.16425 14.5189 2.35266 13.5265 3.25255 12.8166C3.78552 12.4128 4.36157 12.0511 4.97342 11.7361C5.08021 11.6789 5.23801 11.6034 5.42778 11.5073L5.4788 11.4839L5.59035 11.4267C5.75084 11.8792 5.76545 12.3594 5.63266 12.8182C5.49988 13.2771 5.22448 13.6979 4.83466 14.0378Z" fill="#CD6799"/>
</svg>
