<svg width="32" height="32" viewBox="0 0 32 32" fill="none" xmlns="http://www.w3.org/2000/svg">
<path d="M28.688 2H3.312C2.5874 2 2 2.5874 2 3.312V28.688C2 29.4126 2.5874 30 3.312 30H28.688C29.4126 30 30 29.4126 30 28.688V3.312C30 2.5874 29.4126 2 28.688 2Z" fill="#3178C6"/>
<path fill-rule="evenodd" clip-rule="evenodd" d="M18.2455 23.7591V26.8271C18.8029 27.1022 19.397 27.2959 20.0095 27.4021C20.7173 27.5328 21.4357 27.597 22.1555 27.5941C22.857 27.5974 23.5568 27.5267 24.2435 27.3831C24.86 27.2585 25.4482 27.0212 25.9785 26.6831C26.4708 26.3653 26.8766 25.9303 27.1595 25.4171C27.6661 24.3544 27.7329 23.1348 27.3455 22.0231C27.182 21.6074 26.9384 21.2279 26.6285 20.9061C26.2959 20.564 25.918 20.2689 25.5055 20.0291C25.0305 19.7509 24.537 19.5057 24.0285 19.2951C23.6285 19.1291 23.2685 18.9678 22.9485 18.8111C22.6643 18.675 22.3923 18.5148 22.1355 18.3321C21.9344 18.1911 21.7597 18.0158 21.6195 17.8141C21.4983 17.631 21.4353 17.4156 21.4385 17.1961C21.4358 16.9941 21.4921 16.7956 21.6005 16.6251C21.7182 16.4466 21.8752 16.2975 22.0595 16.1891C22.2847 16.0565 22.5299 15.9609 22.7855 15.9061C23.0993 15.8364 23.42 15.8028 23.7415 15.8061C24.0118 15.807 24.2818 15.8264 24.5495 15.8641C24.8386 15.9032 25.1246 15.9623 25.4055 16.0411C25.6912 16.1203 25.9706 16.2206 26.2415 16.3411C26.5043 16.4583 26.7557 16.5995 26.9925 16.7631V13.9001C26.4996 13.7136 25.9884 13.5796 25.4675 13.5001C24.8384 13.4086 24.2032 13.3654 23.5675 13.3711C22.8726 13.3674 22.1797 13.4462 21.5035 13.6061C20.8922 13.7458 20.311 13.994 19.7875 14.3391C19.3012 14.6631 18.8996 15.0989 18.6165 15.6101C18.3164 16.1778 18.168 16.8133 18.1855 17.4551C18.1633 18.3039 18.4429 19.133 18.9745 19.7951C19.6267 20.5292 20.4491 21.092 21.3695 21.4341C21.7895 21.6074 22.1811 21.7771 22.5445 21.9431C22.8723 22.089 23.1874 22.2619 23.4865 22.4601C23.7277 22.617 23.9396 22.815 24.1125 23.0451C24.2645 23.2538 24.3452 23.5059 24.3425 23.7641C24.3439 23.9576 24.2942 24.148 24.1985 24.3161C24.0921 24.4968 23.9427 24.6483 23.7635 24.7571C23.5392 24.8938 23.2939 24.9925 23.0375 25.0491C22.7034 25.1238 22.3617 25.159 22.0195 25.1541C21.3478 25.1529 20.6814 25.0344 20.0505 24.8041C19.3913 24.5662 18.78 24.2123 18.2455 23.7591ZM13.0915 16.1211H17.0915V13.5941H5.93848V16.1211H9.92048V27.3751H13.0915V16.1211Z" fill="white"/>
</svg>
